
<?xml version="1.0" standalone="no"?>
<!DOCTYPE svg PUBLIC "-//W3C//DTD SVG 20010904//EN"
 "http://www.w3.org/TR/2001/REC-SVG-20010904/DTD/svg10.dtd">
<svg version="1.0" xmlns="http://www.w3.org/2000/svg"
 viewBox="0 0 500.000000 125.000000"
 preserveAspectRatio="xMidYMid meet">

<g transform="translate(0.000000,125.000000) scale(0.100000,-0.100000)">
<path d="M320 1107 c-113 -32 -167 -98 -177 -216 l-6 -71 -48 0 -49 0 0 -65 0
-65 50 0 50 0 0 -275 0 -275 90 0 90 0 0 275 0 275 65 0 65 0 0 65 0 65 -65 0
-65 0 0 46 c0 58 13 82 55 100 35 14 130 19 159 8 14 -5 16 -52 16 -420 l0
-414 90 0 90 0 0 479 0 478 -67 7 c-156 15 -298 16 -343 3z"/>
<path d="M2260 620 l0 -480 80 0 80 0 0 35 c0 19 3 35 6 35 4 0 21 -13 40 -29
87 -77 231 -68 316 20 69 70 92 152 86 302 -4 95 -8 121 -32 172 -51 112 -108
150 -228 150 -71 -1 -81 -3 -123 -33 -25 -17 -47 -32 -48 -32 -1 0 -1 76 1
170 l3 170 -91 0 -90 0 0 -480z m374 49 c40 -32 58 -75 63 -159 7 -99 -10
-171 -49 -210 -25 -26 -37 -30 -82 -30 -39 0 -62 6 -87 23 l-34 23 -3 144 c-1
80 0 155 3 168 14 57 135 83 189 41z"/>
<path d="M1088 817 c-141 -40 -218 -163 -218 -348 0 -110 24 -180 81 -239 108
-111 319 -133 446 -47 71 48 73 57 28 109 l-39 44 -49 -33 c-43 -29 -57 -33
-116 -33 -95 0 -148 39 -175 128 l-7 22 222 0 222 0 -6 99 c-8 147 -53 230
-151 280 -58 28 -170 37 -238 18z m162 -142 c35 -18 60 -62 60 -105 l0 -30
-134 0 -134 0 10 37 c21 76 63 112 131 113 21 0 51 -7 67 -15z"/>
<path d="M3177 820 c-106 -27 -187 -105 -187 -181 0 -17 8 -19 85 -19 70 0 85
3 85 15 0 9 11 27 25 40 20 21 34 25 79 25 48 0 57 -3 80 -31 19 -23 26 -42
26 -75 l0 -44 -75 0 c-169 0 -269 -46 -310 -142 -57 -138 49 -278 210 -278 57
0 110 17 144 45 16 14 31 25 34 25 3 0 8 -14 12 -30 l7 -30 89 0 c49 0 89 2
89 4 0 3 -5 17 -11 33 -7 16 -14 127 -18 269 l-6 241 -29 41 c-42 61 -116 95
-215 98 -42 2 -93 -1 -114 -6z m193 -433 c0 -53 -4 -67 -22 -84 -54 -48 -126
-58 -171 -23 -34 27 -41 52 -27 96 18 53 59 74 148 74 l72 0 0 -63z"/>
<path d="M3864 821 c-56 -14 -118 -55 -147 -98 -37 -52 -41 -132 -10 -185 27
-46 108 -92 209 -117 48 -12 99 -28 115 -37 51 -26 50 -92 -1 -119 -33 -17
-97 -20 -133 -6 -33 13 -67 50 -67 73 0 16 -10 18 -85 18 l-85 0 6 -27 c27
-116 117 -180 264 -190 195 -14 327 87 306 232 -14 93 -84 141 -260 180 -123
27 -161 83 -94 140 28 23 39 27 80 23 53 -6 98 -38 98 -70 0 -16 10 -18 90
-18 l90 0 -6 28 c-18 78 -59 124 -138 157 -44 18 -186 28 -232 16z"/>
<path d="M4553 812 c-28 -10 -67 -30 -86 -45 -43 -33 -92 -108 -107 -167 -16
-56 -16 -192 -2 -245 53 -192 290 -283 487 -186 36 18 73 44 82 57 16 25 15
26 -27 69 l-43 43 -21 -20 c-49 -47 -165 -64 -226 -33 -35 18 -76 70 -85 108
l-7 27 222 0 223 0 -6 94 c-12 200 -100 300 -274 312 -60 4 -90 1 -130 -14z
m193 -155 c26 -24 37 -43 41 -75 l6 -42 -137 0 c-151 0 -148 -2 -117 66 27 59
63 84 122 84 42 0 55 -5 85 -33z"/>
<path d="M1622 698 c40 -68 83 -144 97 -169 l25 -46 -97 -165 c-53 -90 -97
-168 -97 -172 0 -4 41 -5 92 -4 l91 3 56 102 c31 56 61 103 66 103 6 0 36 -48
68 -105 l59 -105 93 0 94 0 -100 170 c-65 110 -99 177 -94 187 5 14 100 179
167 291 l20 32 -94 0 -93 0 -55 -100 c-30 -55 -59 -100 -65 -100 -5 0 -34 45
-63 100 l-53 100 -94 0 -94 0 71 -122z"/>
</g>
</svg>
